<?xml version="1.0" standalone="no"?>
<!DOCTYPE svg PUBLIC "-//W3C//DTD SVG 20010904//EN"
 "http://www.w3.org/TR/2001/REC-SVG-20010904/DTD/svg10.dtd">
<svg version="1.0" xmlns="http://www.w3.org/2000/svg"
 width="400.000000pt" height="400.000000pt" viewBox="0 0 400.000000 400.000000"
 preserveAspectRatio="xMidYMid meet">
<metadata>
Created by potrace 1.11, written by Peter Selinger 2001-2013
</metadata>
<g transform="translate(0.000000,400.000000) scale(0.100000,-0.100000)"
fill="#000000" stroke="none">
<path d="M1826 3988 c-464 -40 -905 -247 -1236 -578 -166 -166 -280 -326 -385
-543 -152 -310 -223 -675 -196 -1005 42 -498 238 -930 581 -1272 305 -305 684
-496 1121 -566 141 -23 437 -23 578 0 658 105 1202 499 1495 1083 146 293 209
561 209 893 0 124 -6 219 -17 289 -70 437 -261 816 -566 1121 -166 166 -326
280 -543 385 -222 109 -456 172 -712 194 -136 12 -188 12 -329 -1z m470 -72
c-3 -11 -6 -26 -6 -32 0 -24 -29 -9 -34 19 -7 37 -1 47 25 40 15 -4 19 -11 15
-27z m138 -12 c22 5 26 3 26 -17 0 -32 18 -49 42 -36 16 9 18 6 18 -30 l0 -40
-45 5 -45 4 0 -48 c0 -44 -2 -49 -22 -48 -16 1 -24 -5 -26 -21 -2 -17 -11 -22
-43 -25 l-39 -4 0 43 c0 37 3 43 21 43 12 0 23 8 26 20 3 11 14 20 24 20 17 0
19 8 19 78 0 48 4 72 9 63 6 -9 18 -11 35 -7z m-234 -12 c0 -10 -7 -19 -15
-19 -8 0 -15 9 -15 19 0 10 7 18 15 18 8 0 15 -8 15 -18z m321 -7 c0 -14 -31
-19 -43 -7 -6 6 -7 15 -4 21 8 12 48 0 47 -14z m-361 -41 c0 -8 -9 -14 -20
-14 -13 0 -20 7 -20 19 0 14 5 18 20 14 11 -3 20 -12 20 -19z m448 3 c2 -12
-3 -17 -17 -17 -15 0 -21 6 -21 21 0 25 33 22 38 -4z m158 -43 c22 -9 46 -22
54 -29 8 -7 29 -16 45 -20 l30 -8 -30 -6 c-17 -4 -31 -14 -35 -26 -4 -17 -14
-20 -55 -20 -44 0 -50 3 -53 23 -5 30 -36 46 -63 32 -29 -16 -23 -74 9 -78 15
-2 22 2 22 13 0 11 -5 15 -15 11 -10 -4 -15 1 -15 14 0 13 7 20 20 20 17 0 20
-7 20 -39 0 -33 -4 -40 -22 -43 -17 -2 -23 -10 -23 -28 0 -19 5 -25 23 -24 29
1 28 -2 -8 -21 -16 -9 -30 -22 -30 -30 0 -7 -4 -17 -10 -20 -6 -4 -10 40 -10
123 0 125 1 130 20 125 16 -4 20 0 20 21 0 23 4 26 34 26 18 0 51 -7 72 -16z
m-1641 -64 c-3 -5 -13 -10 -21 -10 -8 0 -12 5 -9 10 3 6 13 10 21 10 8 0 12
-4 9 -10z m805 -24 c0 -9 -14 -15 -40 -18 -33 -3 -40 0 -40 14 0 14 8 18 40
18 28 0 40 -4 40 -14z m-183 -63 c-3 -2 -13 -3 -23 -1 -16 3 -16 4 2 22 18 18
19 18 22 2 2 -10 1 -20 -1 -23z m-757 2 c0 -8 9 -15 20 -15 17 0 20 -7 20 -45
0 -41 2 -45 25 -45 23 0 25 -4 25 -40 l0 -40 -70 0 c-67 0 -70 -1 -70 -24 0
-19 -4 -23 -20 -19 -19 5 -20 0 -20 -111 l0 -116 -25 0 c-23 0 -25 -4 -25 -45
0 -38 -3 -45 -20 -45 -14 0 -20 -7 -20 -23 0 -18 -5 -23 -22 -23 -20 1 -23 -5
-26 -45 -3 -41 -6 -46 -23 -42 -15 4 -19 0 -19 -21 0 -21 -5 -26 -25 -26 -20
0 -25 -5 -25 -24 0 -19 -4 -23 -20 -19 -16 4 -20 0 -20 -21 0 -21 -5 -26 -25
-26 -20 0 -25 -5 -25 -24 0 -19 -4 -23 -20 -19 -18 5 -20 0 -20 -44 0 -45 -2
-50 -22 -49 -21 1 -23 -4 -26 -66 -3 -60 -5 -68 -22 -68 -17 0 -20 -7 -20 -45
0 -41 -2 -45 -25 -45 -23 0 -25 -4 -25 -45 0 -38 -3 -45 -20 -45 -17 0 -20 -7
-20 -45 0 -41 -2 -45 -25 -45 -20 0 -25 -5 -25 -24 0 -19 -4 -23 -20 -19 -16
4 -20 0 -20 -21 0 -21 -5 -26 -25 -26 -20 0 -25 -5 -25 -24 0 -19 -4 -23 -20
-19 -19 5 -20 0 -20 -66 0 -59 -3 -71 -16 -71 -11 0 -15 6 -11 20 3 11 1 20
-4 20 -5 0 -9 -49 -9 -110 l0 -110 -25 0 c-20 0 -25 -5 -25 -26 0 -19 -5 -25
-17 -22 -26 5 -32 78 -6 79 17 1 17 2 1 6 -16 4 -18 18 -18 119 0 107 1 114
20 114 15 0 20 7 20 26 0 21 4 25 23 22 14 -2 23 -11 25 -25 2 -13 10 -23 20
-23 12 0 13 3 4 12 -7 7 -12 20 -12 30 0 30 -46 27 -72 -4 -18 -20 -18 -20
-18 11 0 21 5 31 15 31 11 0 15 12 15 45 0 41 2 45 25 45 20 0 25 5 25 25 0
16 6 25 15 25 11 0 14 -7 9 -24 -7 -31 9 -41 61 -37 60 4 102 50 106 116 l4
50 -53 0 c-35 0 -52 4 -52 13 0 6 9 12 20 12 18 0 20 7 20 71 0 67 1 70 23 67
20 -3 22 2 25 46 3 42 6 47 23 43 17 -5 19 0 19 45 0 45 2 49 23 46 20 -3 22
1 25 51 l3 53 -45 -3 -44 -4 -4 53 c-3 61 6 76 24 38 10 -24 17 -26 70 -26 71
0 88 -21 45 -52 -43 -32 -34 -88 14 -88 22 0 32 6 39 24 5 13 18 27 28 30 11
4 22 15 25 26 3 13 15 20 43 22 36 3 39 5 42 37 3 28 20 50 93 121 l89 87 0
76 c0 66 2 75 20 80 17 4 20 14 20 60 0 31 -4 59 -10 62 -6 4 -6 12 -1 23 5 9
12 26 16 36 4 15 8 17 17 8 16 -16 50 -15 73 1 12 10 14 16 7 21 -13 8 -17
128 -5 139 11 12 23 8 23 -8z m1938 -33 c3 -20 9 -22 68 -22 57 0 64 -2 64
-19 0 -13 8 -21 23 -23 19 -3 22 -9 22 -48 l0 -45 -42 -3 c-40 -3 -43 -1 -43
22 0 21 -5 26 -25 26 -18 0 -25 5 -25 20 0 17 -7 20 -45 20 -38 0 -45 -3 -45
-20 0 -13 -7 -20 -19 -20 -13 0 -20 9 -24 33 -6 41 1 57 24 57 12 0 19 7 19
18 0 39 43 43 48 4z m-1978 -47 c0 -63 -1 -65 -25 -65 -24 0 -25 3 -25 59 0
38 4 61 13 64 33 14 37 7 37 -58z m710 50 c0 -8 -9 -15 -20 -15 -13 0 -18 5
-14 15 4 8 12 15 20 15 8 0 14 -7 14 -15z m-781 -52 c0 -16 -3 -22 -6 -15 -2
6 -12 12 -21 12 -15 1 -14 3 2 15 26 20 26 19 25 -12z m1281 7 c0 -17 -7 -20
-40 -20 -54 0 -56 27 -2 33 20 2 38 4 40 5 1 1 2 -7 2 -18z m312 -26 c3 -40 2
-43 -19 -37 -20 4 -23 1 -23 -21 0 -21 -5 -26 -26 -26 -24 0 -25 -2 -22 -47 3
-41 6 -48 26 -51 15 -2 22 -10 22 -25 0 -21 4 -22 93 -22 l92 1 3 91 c3 85 4
91 22 86 16 -4 20 0 20 21 0 21 5 26 25 26 18 0 25 5 25 20 0 11 6 20 14 20 7
0 16 -9 19 -20 4 -16 14 -20 45 -20 36 0 39 -2 35 -25 -4 -20 0 -25 22 -31 15
-4 31 -2 38 5 19 19 42 13 42 -12 0 -19 -4 -22 -22 -19 -19 4 -23 0 -23 -20 0
-19 -5 -24 -22 -24 -20 1 -23 -5 -26 -41 -3 -35 -7 -43 -23 -43 -16 0 -19 -7
-19 -48 l0 -47 -45 3 -45 4 0 -49 c0 -45 -2 -50 -22 -49 -17 1 -24 -5 -26 -21
-3 -19 -10 -23 -43 -23 l-39 0 0 105 c0 63 -4 105 -10 105 -6 0 -10 -43 -10
-110 l0 -111 30 -12 29 -13 -38 -42 c-21 -23 -43 -42 -49 -42 -15 0 -25 -36
-17 -59 3 -11 15 -23 26 -26 10 -4 19 -12 19 -20 0 -13 59 -40 68 -30 10 10
-9 35 -28 35 -13 0 -20 7 -20 20 0 13 -7 20 -20 20 -13 0 -20 7 -20 19 0 12 7
18 17 17 11 0 19 7 21 21 2 13 11 23 25 25 12 2 24 12 27 23 4 15 13 20 40 20
34 0 35 -1 40 -45 3 -31 10 -45 20 -45 8 0 17 -9 20 -20 3 -11 16 -21 28 -23
19 -3 22 -10 22 -48 0 -37 3 -44 20 -44 18 0 20 -7 20 -60 0 -53 -2 -60 -20
-60 -18 0 -20 -7 -20 -70 0 -68 -1 -70 -26 -70 -22 0 -25 -4 -22 -27 2 -23 7
-27 26 -25 17 3 22 -2 22 -17 0 -16 -6 -21 -25 -21 -18 0 -25 -5 -25 -20 0
-11 -4 -20 -10 -20 -5 0 -10 8 -10 18 0 28 -21 42 -61 42 -40 0 -74 -24 -65
-45 3 -8 -2 -16 -10 -19 -11 -4 -14 5 -14 44 0 43 -3 50 -20 50 -11 0 -20 7
-20 15 0 8 9 15 20 15 15 0 20 7 20 25 0 18 5 25 20 25 15 0 20 -7 20 -26 0
-24 2 -25 48 -22 40 3 47 6 50 26 2 15 9 22 20 20 14 -3 17 8 20 70 3 66 1 72
-17 72 -13 0 -21 8 -23 23 -2 14 -11 23 -25 25 -15 2 -23 10 -23 23 0 16 -7
19 -50 19 l-50 0 6 -70 7 -70 -27 0 c-24 0 -26 -3 -26 -45 l0 -45 -61 0 c-56
0 -61 2 -56 20 3 11 1 20 -4 20 -5 0 -9 -9 -9 -20 0 -15 -7 -20 -25 -20 -20 0
-25 5 -25 25 0 18 5 25 19 25 16 0 20 8 23 43 3 42 3 42 48 47 26 3 45 10 46
18 2 28 5 32 24 32 17 0 20 -7 21 -42 2 -35 3 -37 6 -13 3 17 9 35 14 41 6 8
2 14 -13 19 -41 13 -52 10 -65 -15 -9 -18 -22 -26 -50 -30 -35 -5 -38 -8 -41
-38 -3 -30 -5 -32 -16 -16 -11 14 -10 22 1 46 8 15 20 28 28 28 15 0 25 22 25
55 0 15 7 25 21 28 30 8 24 71 -8 75 -13 2 -23 -1 -23 -7 0 -6 7 -11 15 -11 8
0 15 -7 15 -15 0 -8 -9 -15 -20 -15 -17 0 -20 7 -20 38 0 34 3 38 23 38 17 -1
23 5 25 27 3 22 -1 27 -18 27 -16 0 -20 4 -16 16 4 9 1 23 -5 30 -21 25 -54
15 -94 -28 -21 -24 -44 -44 -50 -44 -5 -1 -16 -2 -22 -3 -7 0 -13 -8 -13 -17
0 -12 9 -14 38 -12 30 2 38 7 40 26 2 14 10 22 22 22 17 0 19 -9 22 -67 3 -58
6 -68 21 -67 14 2 17 -6 17 -40 0 -31 -4 -43 -15 -43 -15 0 -19 10 -16 35 1 8
-18 12 -69 12 l-70 0 0 155 0 155 35 0 c19 0 38 1 43 3 4 1 8 -10 10 -25 3
-24 0 -28 -20 -28 -20 0 -58 -30 -58 -45 0 -15 33 -2 37 15 4 14 11 19 23 15
12 -4 24 2 34 17 14 19 14 24 1 38 -24 26 -19 43 10 36 20 -5 26 -2 31 18 3
14 15 27 29 30 12 3 25 15 28 25 7 28 -18 60 -43 54 -13 -4 -29 5 -49 28 -30
33 -31 33 -63 17 l-33 -17 38 0 c33 -1 37 -4 37 -26 0 -23 2 -24 45 -18 44 6
45 5 45 -21 0 -21 -5 -26 -25 -26 -19 0 -25 -5 -25 -23 0 -16 -6 -23 -20 -23
-14 0 -20 7 -20 23 0 22 -4 23 -70 23 l-70 0 0 45 c0 43 1 45 29 45 25 0 28 3
23 25 -3 20 0 25 16 25 11 0 23 -6 26 -12 3 -7 4 -1 2 15 -3 23 0 27 20 27 23
0 24 3 24 73 l0 72 45 -3 c42 -4 45 -2 45 20 0 22 4 25 39 25 39 0 39 0 43
-43z m355 31 c-5 -15 -40 -17 -60 -3 -15 11 -12 13 23 13 23 0 39 -4 37 -10z
m-1972 -77 c0 -39 -2 -43 -22 -40 -19 3 -23 -2 -23 -22 0 -21 5 -26 24 -26 21
0 23 -4 23 -45 0 -41 -2 -45 -23 -45 -23 0 -24 -2 -24 -89 0 -85 -1 -90 -22
-93 -15 -2 -22 -9 -22 -21 1 -12 -5 -17 -22 -17 -19 0 -24 -5 -24 -24 0 -18
-6 -25 -22 -28 -15 -2 -22 -9 -22 -21 1 -12 -5 -17 -22 -17 -22 0 -24 -4 -24
-45 l0 -45 -45 0 c-41 0 -45 -2 -45 -25 0 -18 -5 -25 -20 -25 -17 0 -20 7 -20
45 l0 45 -70 0 c-68 0 -70 1 -70 25 0 16 -6 25 -15 25 -8 0 -15 3 -15 8 1 13
123 178 197 266 121 143 287 276 323 260 3 -1 5 -22 5 -46z m675 7 c0 -33 -4
-45 -15 -45 -8 0 -15 5 -15 10 0 6 5 10 10 10 6 0 10 5 10 10 0 6 -7 10 -15
10 -8 0 -15 -9 -15 -20 0 -17 -7 -20 -45 -20 -41 0 -45 -2 -45 -25 0 -24 -2
-25 -70 -25 -63 0 -70 2 -70 20 0 17 7 20 45 20 41 0 45 2 45 25 0 23 4 25 45
25 38 0 45 3 45 19 0 16 8 21 43 24 23 2 43 4 45 5 1 1 2 -18 2 -43z m540 21
c0 -8 -10 -16 -22 -18 -15 -2 -24 -11 -26 -25 -3 -19 -10 -23 -43 -23 -35 0
-39 -3 -39 -24 0 -18 -6 -25 -22 -28 -15 -2 -24 -11 -26 -25 -2 -15 -10 -23
-22 -23 -14 0 -20 -10 -25 -40 -5 -30 -11 -40 -26 -40 -16 0 -19 -7 -19 -45 0
-44 -24 -90 -42 -79 -4 3 -8 0 -8 -6 0 -6 10 -10 23 -8 20 3 22 -2 25 -44 3
-43 1 -48 -17 -48 -20 0 -21 -6 -21 -90 l0 -90 -45 0 -45 0 0 -45 c0 -41 -2
-45 -25 -45 -23 0 -25 4 -25 45 0 37 -3 45 -19 45 -20 0 -31 -34 -31 -96 0
-24 -5 -34 -15 -34 -12 0 -14 4 -5 19 7 14 7 22 0 26 -8 5 -8 11 -1 19 6 7 8
16 4 19 -16 17 -23 3 -23 -44 0 -47 -2 -50 -22 -47 -15 2 -24 11 -26 26 -3 18
-10 22 -43 22 -32 0 -39 -3 -39 -20 0 -11 7 -20 15 -20 9 0 12 6 9 15 -4 8 -1
15 5 15 6 0 11 -17 11 -40 0 -36 -2 -40 -25 -40 -18 0 -25 5 -25 20 0 13 -7
20 -20 20 -17 0 -20 -7 -20 -46 0 -41 -2 -45 -22 -42 -15 2 -24 11 -26 26 -2
14 -10 22 -23 22 -14 0 -19 7 -19 25 0 18 5 25 19 25 13 0 21 8 23 23 3 19 9
22 46 21 32 -1 42 3 42 14 0 13 -3 13 -12 4 -16 -16 -28 -15 -28 2 0 14 49 26
109 26 28 0 33 3 28 20 -5 18 0 20 44 20 l49 0 0 43 c0 41 1 42 36 44 42 2 43
-20 1 -25 -15 -2 -25 -7 -23 -11 3 -4 20 -5 39 -3 l34 4 -2 66 c-3 108 -4 110
-22 108 -14 -1 -19 8 -21 42 -3 34 -7 42 -23 42 -16 0 -19 7 -19 50 0 44 3 50
21 50 15 0 20 5 17 23 -2 14 -9 21 -21 21 -10 -1 -17 5 -17 17 0 12 7 19 20
19 13 0 20 -7 20 -20 0 -17 7 -20 45 -20 41 0 45 2 45 25 0 23 4 25 45 25 38
0 45 3 45 20 0 15 7 20 25 20 18 0 25 5 25 19 0 16 9 21 45 27 36 5 45 10 45
26 0 10 4 17 9 14 16 -10 41 5 41 25 0 15 7 19 40 19 28 0 40 -4 40 -14z m886
-13 c18 -25 17 -53 -2 -53 -10 0 -14 5 -10 15 3 9 -3 20 -14 27 -11 7 -20 16
-20 20 0 15 33 8 46 -9z m-1721 -73 c-3 -5 -19 -10 -36 -10 -16 0 -29 5 -29
10 0 6 16 10 36 10 21 0 33 -4 29 -10z m475 -5 c0 -8 -9 -15 -20 -15 -11 0
-20 7 -20 15 0 8 9 15 20 15 11 0 20 -7 20 -15z m1490 10 c0 -2 -9 -9 -20 -15
-16 -9 -20 -8 -20 5 0 8 9 15 20 15 11 0 20 -2 20 -5z m-1760 -20 c0 -9 -6
-12 -15 -9 -8 4 -12 10 -9 15 8 14 24 10 24 -6z m1476 -12 c-10 -10 -19 5 -10
18 6 11 8 11 12 0 2 -7 1 -15 -2 -18z m-1766 -12 c0 -6 -4 -13 -10 -16 -5 -3
-10 1 -10 9 0 9 5 16 10 16 6 0 10 -4 10 -9z m110 -11 c0 -17 -7 -20 -45 -20
-38 0 -45 3 -45 20 0 17 7 20 45 20 38 0 45 -3 45 -20z m360 -1 c0 -11 -4 -18
-10 -14 -5 3 -18 0 -28 -6 -25 -16 -52 -5 -52 21 0 17 6 20 45 20 39 0 45 -3
45 -21z m490 -1 c0 -10 -7 -18 -15 -18 -8 0 -15 8 -15 18 0 10 7 19 15 19 8 0
15 -9 15 -19z m1220 -4 c0 -19 5 -24 25 -24 l25 0 0 -131 c0 -116 -2 -130 -15
-119 -11 9 -15 33 -15 91 0 68 -3 81 -20 91 -11 7 -20 24 -20 38 0 30 -7 41
-37 58 -30 16 -33 15 -33 -8 0 -13 7 -20 19 -20 16 0 20 -8 23 -42 2 -36 7
-44 26 -46 21 -3 22 -8 22 -93 0 -81 2 -89 19 -89 13 0 21 -8 23 -22 2 -17 9
-23 26 -22 21 1 22 -3 22 -86 0 -83 -1 -87 -22 -86 -16 1 -24 -5 -26 -21 -3
-21 -9 -22 -90 -25 -85 -3 -87 -3 -87 -28 0 -20 4 -24 23 -22 16 2 22 -2 22
-17 0 -13 -8 -21 -22 -23 -14 -2 -23 -10 -22 -20 1 -13 -10 -17 -62 -20 -56
-3 -64 -1 -64 15 0 10 8 17 20 17 15 0 20 7 20 25 0 23 -4 25 -45 25 l-45 0 0
45 0 45 -70 0 c-68 0 -70 1 -70 24 0 19 -4 24 -20 21 -16 -3 -20 2 -20 21 0
19 -5 24 -25 24 -23 0 -25 4 -25 45 0 38 -3 45 -20 45 -17 0 -20 7 -20 45 l0
45 65 0 c58 0 65 -2 65 -20 0 -15 7 -20 25 -20 20 0 25 -5 25 -25 0 -18 5 -25
20 -25 18 0 20 -7 20 -65 0 -63 1 -65 25 -65 20 0 25 -5 25 -26 0 -26 0 -26
66 -22 69 5 83 -3 69 -39 -3 -10 -5 -19 -3 -21 2 -2 -5 -8 -14 -13 -23 -13
-23 -28 -1 -25 21 3 35 57 27 104 -8 40 4 42 17 3 7 -20 19 -31 37 -34 32 -6
37 -3 29 18 -4 8 -16 15 -27 15 -13 0 -20 7 -20 20 0 13 -7 20 -20 20 -17 0
-19 8 -22 68 -3 62 -5 67 -25 66 l-23 -1 0 176 0 176 110 2 110 2 0 -25z
m-450 1 c0 -8 -7 -15 -16 -15 -14 0 -14 3 -4 15 7 8 14 15 16 15 2 0 4 -7 4
-15z m-1580 -5 c0 -5 -4 -10 -10 -10 -5 0 -10 5 -10 10 0 6 5 10 10 10 6 0 10
-4 10 -10z m739 -16 c28 -6 31 -10 31 -45 0 -32 -4 -39 -19 -39 -15 0 -20 -10
-25 -45 l-7 -45 -58 0 c-57 0 -59 1 -65 31 -10 50 -7 59 14 59 13 0 20 7 20
20 0 17 7 20 50 20 38 0 50 4 50 15 0 8 -4 15 -10 15 -5 0 -10 -4 -10 -10 0
-5 -7 -10 -15 -10 -15 0 -21 21 -8 33 8 9 13 9 52 1z m-869 -24 c0 -13 -7 -20
-20 -20 -13 0 -20 -7 -20 -20 0 -17 -7 -20 -45 -20 -38 0 -45 3 -45 20 0 13 7
20 20 20 12 0 20 -7 20 -16 0 -14 2 -15 17 -3 15 13 15 14 0 17 -10 2 -17 12
-17 23 0 16 7 19 45 19 38 0 45 -3 45 -20z m1030 7 c0 -8 -7 -14 -15 -14 -8 0
-16 6 -19 14 -3 8 2 13 14 13 11 0 20 -6 20 -13z m895 -72 c0 -61 -3 -85 -12
-85 -10 0 -13 24 -13 85 0 61 3 85 13 85 9 0 12 -24 12 -85z m-1885 59 c0 -8
-5 -12 -10 -9 -6 4 -8 11 -5 16 9 14 15 11 15 -7z m2285 -63 c32 -38 56 -73
54 -78 -2 -4 -21 -8 -41 -9 -34 -1 -38 2 -38 22 0 19 -5 24 -25 24 -24 0 -25
3 -25 55 0 30 4 55 9 55 4 0 34 -31 66 -69z m-2475 40 c0 -12 -20 -25 -27 -18
-7 7 6 27 18 27 5 0 9 -4 9 -9z m15 -57 c0 -12 -8 -20 -22 -22 -19 -3 -23 1
-23 22 0 21 4 25 23 22 14 -2 22 -10 22 -22z m-65 -4 c-6 -11 -13 -20 -15 -20
-3 0 -5 9 -5 20 0 11 7 20 15 20 13 0 14 -4 5 -20z m110 -39 c0 -13 8 -21 23
-23 14 -2 23 -11 25 -25 3 -21 -1 -23 -42 -23 l-46 0 0 45 c0 38 3 45 20 45
13 0 20 -7 20 -19z m768 -48 c-2 -10 -13 -19 -26 -21 -17 -3 -22 2 -22 17 0
16 6 21 26 21 19 0 25 -5 22 -17z m201 -49 c-15 -18 -5 -29 17 -20 9 3 14 12
10 21 -4 10 1 15 14 15 16 0 20 -7 20 -35 0 -28 -4 -35 -20 -35 -17 0 -20 -7
-20 -44 0 -35 -4 -45 -20 -49 -19 -5 -20 0 -20 84 0 75 2 87 15 83 12 -5 13
-9 4 -20z m111 -37 c0 -16 -6 -23 -19 -23 -20 0 -18 24 3 38 16 11 16 10 16
-15z m-180 -6 c0 -14 -5 -18 -20 -14 -11 3 -20 12 -20 19 0 8 9 14 20 14 13 0
20 -7 20 -19z m-50 -66 l0 -42 -40 10 c-45 12 -52 24 -17 29 13 2 23 11 25 24
2 11 9 21 17 21 11 0 15 -12 15 -42z m453 20 c3 -18 0 -21 -15 -17 -21 5 -25
39 -4 39 8 0 16 -10 19 -22z m-3 -45 c0 -5 -5 -10 -11 -10 -5 0 -7 5 -4 10 3
6 8 10 11 10 2 0 4 -4 4 -10z m-555 -41 c-3 -9 -1 -20 5 -24 18 -11 11 -35
-10 -35 -15 0 -20 -7 -20 -25 0 -20 5 -25 25 -25 18 0 25 5 25 20 0 13 7 20
20 20 19 0 20 -7 20 -110 0 -103 -1 -110 -20 -110 -13 0 -20 7 -20 20 0 15 -7
20 -25 20 -14 0 -25 -4 -25 -9 0 -5 7 -8 16 -7 9 0 19 -5 21 -11 3 -9 -8 -13
-36 -13 l-41 0 0 65 c0 58 2 65 20 65 15 0 20 7 20 24 0 22 -5 25 -40 28 -22
2 -41 7 -43 13 -1 6 14 9 36 7 29 -3 37 0 37 13 0 9 -4 13 -10 10 -6 -4 -9 11
-8 37 2 40 4 43 30 44 23 1 27 -2 23 -17z m65 1 c0 -13 -7 -20 -20 -20 -13 0
-20 7 -20 20 0 13 7 20 20 20 13 0 20 -7 20 -20z m224 -44 c-9 -24 -34 -28
-34 -6 0 13 7 20 20 20 13 0 17 -5 14 -14z m76 -31 c0 -55 19 -68 92 -61 33 4
43 3 28 -2 -20 -6 -25 -14 -25 -42 0 -28 5 -35 25 -41 15 -5 -7 -7 -55 -7 -44
1 -92 -4 -107 -10 l-28 -12 0 44 c0 38 3 42 23 42 17 -1 22 5 22 24 0 18 -6
26 -22 28 -14 2 -23 10 -23 21 0 12 7 17 23 17 17 -1 22 4 21 22 0 12 5 22 13
22 9 0 13 -14 13 -45z m190 41 c0 -11 -19 -15 -25 -6 -3 5 1 10 9 10 9 0 16
-2 16 -4z m-1890 -56 c0 -13 -7 -20 -20 -20 -13 0 -20 7 -20 20 0 13 7 20 20
20 13 0 20 -7 20 -20z m980 5 c0 -8 -7 -15 -15 -15 -16 0 -20 12 -8 23 11 12
23 8 23 -8z m870 -95 c0 -13 -7 -20 -20 -20 -13 0 -20 7 -20 20 0 13 7 20 20
20 13 0 20 -7 20 -20z m950 -45 l0 -25 110 0 110 0 0 -25 c0 -20 5 -25 25 -25
15 0 25 -5 24 -12 -3 -28 2 -36 21 -31 18 5 20 0 20 -39 0 -40 -2 -45 -22 -44
-18 1 -22 -4 -21 -21 2 -18 -2 -23 -22 -23 -19 0 -25 -5 -25 -22 0 -22 -4 -23
-67 -23 -64 0 -68 -1 -67 -22 0 -16 -5 -23 -18 -23 -11 0 -18 7 -18 20 0 12
-10 24 -22 30 -20 8 -19 9 12 10 40 0 53 7 68 36 8 16 18 20 42 16 38 -6 60
12 55 46 -1 15 -3 46 -4 69 -1 36 -5 44 -33 57 -39 20 -38 20 -38 -4 0 -14 7
-20 23 -20 20 0 22 -5 25 -65 2 -64 2 -65 -23 -65 -33 0 -35 37 -2 50 21 8 21
9 -5 9 -26 1 -32 -7 -29 -35 1 -7 -8 -14 -19 -17 -12 -3 -20 -13 -20 -25 0
-17 -7 -21 -42 -24 -34 -2 -43 -7 -42 -20 2 -15 -6 -18 -42 -18 l-44 0 0 85
c0 67 3 85 14 85 11 0 14 -9 10 -35 -2 -19 -6 -51 -8 -70 -4 -29 -2 -35 15
-35 17 0 19 7 19 70 0 63 2 70 20 70 17 0 20 7 20 45 0 41 -2 45 -25 45 -18 0
-25 5 -25 18 0 10 3 22 7 25 3 4 15 7 25 7 13 0 18 -7 18 -25z m546 -6 c16
-33 44 -116 44 -135 0 -7 -11 -14 -25 -16 -21 -4 -25 -1 -25 18 0 22 -4 24
-45 24 l-45 0 0 45 c0 38 3 45 20 45 13 0 20 7 20 18 0 43 34 43 56 1z m-2356
6 c0 -8 -6 -15 -13 -15 -8 0 -14 7 -14 15 0 8 6 15 14 15 7 0 13 -7 13 -15z
m-222 -48 c3 -22 -1 -27 -18 -27 -23 0 -35 22 -26 46 10 25 41 12 44 -19z
m452 4 c0 -18 -6 -21 -44 -21 -25 0 -47 4 -51 10 -3 5 -12 7 -20 3 -9 -3 -15
1 -15 9 0 11 16 15 65 17 60 2 65 0 65 -18z m630 -1 c0 -13 -7 -20 -20 -20
-18 0 -20 -7 -20 -70 0 -68 -1 -70 -25 -70 -20 0 -25 -5 -25 -25 0 -18 -5 -25
-20 -25 -17 0 -20 7 -20 51 0 46 2 50 20 44 18 -6 20 -2 20 44 l0 51 -39 0
c-30 0 -40 4 -44 20 -5 19 0 20 84 20 82 0 89 -1 89 -20z m-1040 -41 c0 -18
-23 -26 -55 -19 -5 1 -25 2 -42 3 -21 1 -33 6 -33 15 0 11 11 12 50 7 41 -6
51 -4 56 9 8 20 24 11 24 -15z m320 -74 l0 -95 40 0 c23 0 40 5 40 11 0 6 -7
9 -15 5 -10 -4 -15 1 -15 14 0 13 7 20 20 20 17 0 20 -7 20 -40 0 -43 -5 -46
-58 -31 -25 8 -32 7 -32 -5 0 -8 10 -14 25 -14 20 0 25 -5 25 -26 0 -20 -4
-25 -16 -20 -9 3 -19 6 -24 6 -5 0 -10 8 -13 18 -2 9 -2 -12 1 -48 4 -62 3
-66 -17 -66 -18 0 -21 6 -21 42 0 41 -1 42 -40 48 -22 3 -40 11 -40 17 0 6 7
9 15 5 10 -4 15 1 15 15 0 15 -5 20 -22 17 -22 -3 -23 -8 -26 -90 -3 -80 -5
-88 -22 -88 -18 0 -20 -7 -20 -95 0 -95 0 -95 25 -95 20 0 25 5 25 25 0 20 5
25 25 25 19 0 25 5 23 17 -2 10 4 19 15 21 14 3 17 -4 17 -36 0 -39 -1 -40
-40 -47 -30 -5 -40 -11 -40 -26 0 -14 -7 -19 -25 -19 -23 0 -25 -3 -25 -50 0
-54 -2 -55 -59 -44 l-31 7 0 108 0 109 -45 0 -46 0 3 68 c3 59 5 67 23 67 13
0 21 -8 23 -22 3 -19 9 -22 48 -20 28 1 44 7 44 15 0 8 -8 10 -25 6 -14 -3
-33 -2 -42 2 -12 6 2 10 47 14 l65 5 0 45 c0 42 -2 45 -27 48 -23 3 -28 -1
-28 -17 0 -14 -6 -21 -19 -21 -12 0 -18 7 -17 17 0 12 -7 19 -21 21 -17 3 -23
10 -23 28 0 19 -5 24 -26 24 -24 0 -25 2 -23 60 2 44 6 60 16 60 10 0 12 -6 8
-20 -4 -11 -2 -20 4 -20 6 0 11 -11 11 -24 0 -22 5 -25 53 -31 87 -11 102 -6
102 35 0 27 -5 36 -20 39 -11 2 -23 8 -27 15 -5 6 -8 2 -8 -11 0 -16 6 -23 20
-23 14 0 20 -7 20 -23 0 -21 -5 -24 -45 -26 -42 -2 -45 0 -45 24 0 18 -5 25
-19 25 -21 0 -30 23 -21 60 4 19 12 26 38 28 20 2 32 -1 32 -8 0 -7 -7 -10
-15 -6 -8 3 -15 1 -15 -4 0 -5 -8 -11 -17 -13 -10 -3 1 -5 25 -6 l42 -1 0 40
0 40 43 0 42 0 -3 -65 c-4 -64 -3 -65 22 -65 21 0 26 5 26 25 0 20 5 25 25 25
22 0 25 4 25 35 0 19 -4 35 -10 35 -5 0 -10 -7 -10 -15 0 -8 -8 -15 -17 -15
-15 0 -16 -2 -3 -10 12 -8 12 -10 -4 -16 -10 -4 -22 -16 -27 -28 -7 -16 -8
-12 -5 18 3 21 13 44 23 52 10 7 14 14 8 15 -12 2 42 16 68 18 15 1 17 -10 17
-94z m-100 81 c0 -3 -4 -8 -10 -11 -5 -3 -10 -1 -10 4 0 6 5 11 10 11 6 0 10
-2 10 -4z m1760 0 c0 -2 -7 -9 -15 -16 -12 -10 -15 -10 -15 4 0 9 7 16 15 16
8 0 15 -2 15 -4z m-1052 -30 c2 -10 -5 -24 -17 -32 -12 -9 -21 -22 -21 -31 0
-9 -6 -13 -15 -9 -18 6 -45 -2 -45 -15 0 -5 14 -9 30 -9 25 0 30 -4 30 -25 0
-38 47 -46 74 -13 12 14 29 28 38 31 11 4 15 12 11 23 -8 20 11 32 42 26 20
-3 24 -11 27 -46 2 -34 7 -42 26 -44 21 -3 22 -8 22 -88 l0 -84 -65 0 -65 0 0
-45 c0 -41 -2 -45 -25 -45 -18 0 -25 5 -25 20 0 17 -7 20 -45 20 -38 0 -45 -3
-45 -20 0 -13 -7 -20 -20 -20 -15 0 -20 -7 -20 -25 0 -18 5 -25 20 -25 13 0
20 -7 20 -20 0 -17 7 -20 44 -20 39 0 45 -3 48 -22 2 -19 10 -24 46 -26 34 -3
42 -7 42 -23 0 -18 -8 -19 -110 -19 -103 0 -110 1 -110 20 0 17 -7 20 -45 20
-38 0 -45 -3 -45 -20 0 -15 -7 -20 -25 -20 -18 0 -25 5 -25 20 0 13 -7 20 -20
20 -13 0 -20 -7 -20 -20 0 -13 7 -20 20 -20 11 0 20 -4 20 -9 0 -6 15 -5 37 1
20 5 52 7 72 4 20 -3 84 -5 144 -5 101 0 107 -1 107 -21 0 -13 7 -20 20 -20
17 0 20 -7 21 -47 2 -96 -4 -88 72 -85 66 4 67 4 67 -22 0 -19 -5 -26 -20 -26
-17 0 -20 -7 -20 -45 0 -38 3 -45 20 -45 25 0 27 -27 3 -33 -10 -3 10 -5 45
-6 59 -1 62 -2 62 -26 0 -18 -5 -25 -20 -25 -13 0 -20 -7 -20 -19 0 -13 -8
-21 -22 -23 -15 -2 -24 -11 -26 -25 -3 -20 -9 -23 -48 -23 -37 0 -44 -3 -44
-20 0 -13 -7 -20 -20 -20 -15 0 -20 -7 -20 -25 0 -23 -4 -25 -44 -25 -39 0
-45 3 -48 23 -2 14 -11 23 -25 25 -15 2 -23 10 -23 23 0 19 16 24 68 19 17 -1
22 4 22 24 0 21 -5 26 -25 26 -18 0 -25 -5 -25 -20 0 -11 -7 -20 -15 -20 -12
0 -15 14 -15 65 l0 65 -50 0 c-47 0 -50 -2 -50 -25 0 -20 -5 -24 -22 -22 -18
2 -23 -3 -21 -20 3 -21 -1 -23 -48 -23 -46 0 -50 -2 -44 -20 5 -16 2 -20 -19
-20 -22 0 -26 -5 -26 -29 0 -25 -3 -28 -25 -23 -25 4 -30 -3 -19 -32 4 -11 19
-16 45 -16 32 0 39 -3 39 -20 0 -17 -7 -20 -40 -20 -33 0 -40 3 -40 20 0 13
-7 20 -20 20 -13 0 -18 5 -14 15 4 8 3 23 -1 33 -5 9 -9 24 -9 32 -1 8 -7 15
-13 14 -57 -4 -67 -7 -50 -11 9 -2 17 -11 17 -19 0 -8 8 -14 19 -14 19 0 36
-36 21 -45 -4 -3 -6 -14 -3 -25 4 -15 0 -20 -16 -20 -14 0 -21 6 -21 20 0 17
-7 20 -45 20 -38 0 -45 3 -45 20 0 15 -7 20 -25 20 -20 0 -25 5 -25 25 0 23
-4 25 -45 25 l-45 0 0 70 c0 63 -2 70 -20 70 -13 0 -20 7 -20 20 0 15 -7 20
-25 20 -23 0 -25 4 -25 45 0 33 -4 45 -15 45 -9 0 -15 9 -15 25 0 16 6 25 15
25 9 0 15 -9 15 -25 0 -20 5 -25 25 -25 24 0 25 2 25 70 0 66 1 70 23 67 18
-2 21 2 19 21 -3 20 1 22 42 22 l46 0 0 44 c0 39 3 45 22 48 13 2 24 10 26 19
2 13 -8 18 -41 23 -42 6 -45 10 -51 42 -9 46 -2 54 50 54 37 0 44 3 44 20 0
18 7 20 71 20 66 0 71 1 66 20 -4 16 0 20 19 20 19 0 24 5 24 25 0 18 5 25 20
25 18 0 20 -7 20 -68 0 -65 1 -69 23 -68 16 1 23 -5 25 -21 3 -19 -1 -23 -22
-23 -19 0 -26 -5 -26 -20 0 -11 7 -20 16 -20 8 0 13 4 9 9 -3 6 3 15 14 20 27
15 31 14 31 -9 0 -11 5 -20 10 -20 6 0 10 20 10 45 0 38 -3 45 -20 45 -18 0
-20 7 -20 65 0 63 1 65 25 65 18 0 25 5 25 20 0 11 7 20 15 20 8 0 15 -9 15
-20 0 -15 7 -20 25 -20 18 0 25 -5 25 -19 0 -15 9 -20 45 -23 43 -3 45 -2 45
24 0 21 -5 28 -20 28 -13 0 -20 7 -20 20 0 13 -7 20 -20 20 -17 0 -20 7 -20
45 0 41 -2 45 -25 45 -24 0 -25 2 -25 66 0 63 1 66 21 61 15 -4 23 0 26 13 7
25 56 22 61 -4z m-1010 -29 c3 -23 0 -27 -22 -27 -21 0 -26 5 -26 24 0 43 43
46 48 3z m1147 7 c9 3 15 0 15 -8 0 -8 -10 -11 -30 -8 -18 3 -30 10 -30 19 0
13 3 13 15 3 8 -7 22 -10 30 -6z m-615 -49 c0 -8 -8 -15 -18 -15 -10 0 -19 7
-19 15 0 8 9 15 19 15 10 0 18 -7 18 -15z m92 -7 c3 -20 8 -21 71 -19 66 2 67
2 67 -23 0 -19 5 -26 20 -26 17 0 20 -7 20 -40 0 -32 -4 -40 -18 -40 -13 0
-18 7 -18 23 1 17 -5 22 -24 22 -18 0 -26 -6 -28 -22 -3 -21 -9 -23 -65 -23
l-62 0 3 85 c3 63 7 85 17 85 8 0 15 -10 17 -22z m858 -82 c0 -8 -10 -16 -22
-18 -15 -2 -24 -11 -26 -25 -6 -41 -32 -27 -32 17 l0 40 40 0 c28 0 40 -4 40
-14z m-2382 -68 c3 -46 2 -48 -22 -48 -21 0 -26 -5 -26 -25 0 -23 -4 -25 -45
-25 l-45 0 0 50 c0 43 3 50 20 50 13 0 20 7 20 19 0 24 15 30 60 28 34 -2 35
-3 38 -49z m2202 -68 l0 -110 -45 0 -45 0 0 -45 c0 -41 2 -45 25 -45 18 0 25
5 25 20 0 18 7 20 65 20 58 0 65 -2 65 -20 0 -13 -7 -20 -20 -20 -15 0 -20 -7
-20 -25 0 -20 -5 -25 -25 -25 -18 0 -25 -5 -25 -20 0 -13 -7 -20 -20 -20 -15
0 -20 -7 -20 -25 0 -23 -4 -25 -45 -25 -40 0 -45 2 -45 23 0 38 12 67 26 67 8
0 14 10 14 25 0 18 -5 25 -20 25 -15 0 -20 7 -20 25 0 18 -5 25 -20 25 -13 0
-20 7 -20 20 0 14 -7 20 -21 20 -15 0 -19 4 -15 16 3 9 6 25 6 35 0 18 5 20
44 14 72 -11 86 3 86 85 l0 70 35 0 35 0 0 -110z m1220 90 c0 -13 7 -20 19
-20 13 0 21 -8 23 -22 2 -15 11 -24 26 -26 14 -2 22 -10 22 -22 0 -12 -8 -20
-22 -22 -15 -2 -24 -11 -26 -25 -2 -15 -10 -23 -22 -23 -12 0 -20 8 -22 23 -2
18 -10 23 -45 25 -35 3 -43 7 -43 23 0 14 -7 19 -26 19 -21 0 -25 4 -22 23 2
14 11 23 26 25 14 2 22 10 22 23 0 16 7 19 45 19 38 0 45 -3 45 -20z m-1987
-92 c3 -35 1 -68 -4 -74 -5 -6 -6 -14 -2 -17 3 -4 -3 -7 -15 -7 -19 0 -22 6
-22 40 0 33 3 38 18 34 10 -4 13 -3 5 3 -21 15 -21 83 1 83 9 0 15 -19 19 -62z
m1127 22 c0 -33 -3 -40 -20 -40 -17 0 -20 7 -20 40 0 33 3 40 20 40 17 0 20
-7 20 -40z m-1220 -5 c0 -19 -4 -35 -10 -35 -5 0 -10 16 -10 35 0 19 5 35 10
35 6 0 10 -16 10 -35z m-540 -15 c0 -13 -7 -20 -20 -20 -19 0 -27 20 -13 33
13 14 33 6 33 -13z m-90 -45 c0 -8 -9 -15 -20 -15 -16 0 -20 -7 -20 -30 0 -23
4 -30 20 -30 11 0 20 -7 20 -15 0 -8 -9 -15 -20 -15 -15 0 -20 -7 -20 -25 0
-18 -5 -25 -20 -25 -15 0 -20 7 -20 25 0 20 -5 25 -25 25 -23 0 -25 4 -25 46
0 41 -2 46 -20 41 -15 -4 -20 0 -20 14 0 17 8 19 85 19 69 0 85 -3 85 -15z
m590 -5 c0 -5 -9 -10 -20 -10 -11 0 -20 5 -20 10 0 6 9 10 20 10 11 0 20 -4
20 -10z m585 -40 c3 -5 -1 -10 -10 -10 -9 0 -13 5 -10 10 3 6 8 10 10 10 2 0
7 -4 10 -10z m5 -45 c0 -20 -5 -25 -25 -25 -20 0 -25 5 -25 25 0 20 5 25 25
25 20 0 25 -5 25 -25z m38 -9 c-2 -10 -7 -13 -17 -7 -8 6 -11 16 -7 27 8 21
30 4 24 -20z m1132 -36 c0 -13 7 -20 20 -20 17 0 19 -8 22 -67 3 -62 5 -68 26
-71 20 -3 22 -9 22 -68 0 -57 2 -64 20 -64 17 0 19 -8 22 -67 3 -62 5 -68 26
-71 14 -2 22 -10 22 -22 0 -12 -8 -20 -22 -22 -15 -2 -23 -10 -23 -23 0 -13 8
-21 23 -23 14 -2 22 -10 22 -23 0 -12 7 -19 19 -19 13 0 21 -8 23 -22 2 -15
11 -24 26 -26 14 -2 22 -10 22 -23 0 -16 7 -19 45 -19 38 0 45 3 45 20 0 13 7
20 19 20 13 0 21 8 23 23 2 14 11 23 26 25 14 2 22 10 22 23 0 10 7 19 15 19
11 0 15 -12 15 -44 0 -25 3 -47 8 -49 4 -3 6 28 4 69 l-4 74 42 0 c35 0 41 -3
37 -17 -3 -10 -11 -42 -17 -70 -9 -38 -17 -53 -28 -53 -13 0 -14 -2 -4 -9 12
-7 11 -19 -4 -67 -10 -33 -21 -61 -25 -64 -3 -3 -8 -21 -11 -40 -8 -49 -80
-210 -95 -210 -6 0 -14 8 -16 18 -4 13 -5 12 -6 -5 0 -12 4 -23 10 -25 5 -2 7
-11 3 -22 -5 -14 -9 -15 -16 -4 -7 9 -8 6 -4 -11 8 -39 -120 -242 -222 -351
-23 -25 -42 -48 -42 -52 0 -5 -40 -8 -90 -8 -89 0 -90 0 -90 -25 0 -20 -5 -25
-25 -25 -18 0 -25 -5 -25 -20 0 -19 -7 -20 -110 -20 l-110 0 0 -25 c0 -24 -2
-25 -62 -25 -78 0 -108 8 -102 25 3 7 1 16 -5 20 -20 11 -13 45 9 45 19 0 20
7 20 115 l0 115 70 0 c63 0 70 2 70 19 0 16 8 20 43 23 35 2 43 7 45 26 3 19
9 22 48 22 40 0 44 2 44 25 0 27 2 28 49 19 17 -4 28 -10 25 -15 -3 -5 -10 -7
-15 -4 -5 4 -9 -1 -9 -9 0 -9 9 -16 20 -16 15 0 20 7 20 25 0 24 2 25 69 25
64 0 69 1 64 20 -5 18 0 20 41 20 39 0 46 3 46 20 0 18 7 20 66 20 48 0 65 -3
62 -12 -3 -7 -20 -16 -39 -19 -34 -6 -34 -6 9 -8 l42 -1 0 104 c0 58 -4 107
-9 110 -5 4 -7 -3 -4 -14 5 -19 0 -20 -61 -20 l-66 0 0 46 0 45 -42 -3 c-36
-2 -44 -7 -46 -25 -2 -15 -10 -23 -23 -23 -12 0 -19 -7 -19 -19 0 -13 -8 -21
-22 -23 -15 -2 -24 -11 -26 -25 -2 -15 -10 -23 -23 -23 -12 0 -19 -7 -19 -20
0 -15 -7 -20 -25 -20 -18 0 -25 5 -25 20 0 17 -7 20 -45 20 -41 0 -45 2 -45
25 0 18 -5 25 -20 25 -13 0 -20 7 -20 20 0 15 -7 20 -25 20 -20 0 -25 5 -25
25 0 18 -5 25 -20 25 -13 0 -20 7 -20 20 0 15 -7 20 -25 20 -24 0 -25 2 -25
70 0 68 1 70 25 70 18 0 25 5 25 19 0 16 8 20 42 23 39 3 43 6 49 36 8 41 10
43 51 51 24 5 34 13 36 29 3 19 10 22 48 22 40 0 44 -2 44 -25 0 -18 5 -25 20
-25 13 0 20 -7 20 -20 0 -15 7 -20 25 -20 20 0 25 -5 25 -25 0 -23 4 -25 45
-25 38 0 45 -3 45 -20 0 -13 7 -20 20 -20 17 0 20 7 20 45 0 38 -3 45 -20 45
-17 0 -20 7 -20 45 0 41 -2 45 -25 45 -18 0 -25 5 -25 20 0 17 -7 20 -45 20
-41 0 -45 2 -45 25 0 18 -5 25 -20 25 -18 0 -20 7 -20 65 0 63 -1 65 -25 65
-20 0 -25 5 -25 25 0 20 5 25 25 25 25 0 25 1 25 90 0 83 1 90 20 90 13 0 20
7 20 20 0 15 7 20 25 20 18 0 25 -5 25 -20z m-2050 -5 c10 -12 10 -15 -4 -15
-9 0 -16 7 -16 15 0 8 2 15 4 15 2 0 9 -7 16 -15z m960 -41 c0 -14 -3 -14 -15
-4 -8 7 -15 14 -15 16 0 2 7 4 15 4 8 0 15 -7 15 -16z m90 -24 c0 -27 -4 -40
-13 -40 -9 0 -14 14 -15 40 -1 30 2 40 13 40 11 0 15 -11 15 -40z m500 -20 c0
-53 -2 -60 -20 -60 -18 0 -20 7 -20 60 0 53 2 60 20 60 18 0 20 -7 20 -60z
m-1710 0 c0 -13 -7 -20 -20 -20 -13 0 -20 7 -20 20 0 13 7 20 20 20 13 0 20
-7 20 -20z m-45 -45 c0 -13 -8 -21 -22 -23 -17 -2 -23 -10 -23 -27 0 -18 -4
-22 -20 -18 -11 3 -20 14 -20 24 0 12 7 19 20 19 15 0 20 7 20 26 0 21 4 25
23 22 14 -2 22 -10 22 -23z m-495 -45 c0 -13 -7 -20 -20 -20 -13 0 -20 7 -20
20 0 13 7 20 20 20 13 0 20 -7 20 -20z m900 0 c0 -13 -7 -20 -20 -20 -13 0
-20 7 -20 20 0 13 7 20 20 20 13 0 20 -7 20 -20z m-492 -112 l3 -88 -26 0
c-20 0 -25 -5 -25 -25 0 -18 -5 -25 -20 -25 -11 0 -20 -5 -20 -11 0 -6 12 -9
28 -7 19 2 28 9 30 24 3 24 27 34 85 34 33 0 37 3 37 25 0 24 2 25 65 25 l65
0 0 -65 c0 -51 -3 -65 -15 -65 -8 0 -16 -8 -16 -17 -1 -17 -2 -17 -6 0 -3 13
-15 17 -54 17 -42 0 -49 -3 -49 -20 0 -13 -7 -20 -20 -20 -15 0 -20 -7 -20
-25 0 -24 -2 -25 -70 -25 -63 0 -70 -2 -70 -20 0 -16 -7 -20 -36 -20 -28 0
-35 3 -30 15 13 34 -49 60 -74 30 -11 -13 -14 -13 -27 1 -17 16 -34 15 -41 -4
-2 -7 3 -12 12 -12 9 0 16 -8 16 -20 0 -15 7 -20 25 -20 18 0 25 5 25 20 0 13
7 20 20 20 17 0 20 -7 20 -40 l0 -40 -65 0 c-58 0 -65 -2 -65 -20 0 -13 -7
-20 -20 -20 -17 0 -20 7 -20 40 0 33 3 40 20 40 17 0 20 7 20 45 0 41 2 45 25
45 18 0 25 5 25 20 0 18 7 20 65 20 63 0 65 1 65 25 0 18 5 25 19 25 19 0 31
39 31 108 0 25 4 32 20 32 17 0 20 7 20 46 0 41 2 45 23 42 21 -3 22 -8 25
-90z m-458 37 c0 -41 2 -45 25 -45 23 0 25 -4 25 -40 l0 -40 -90 0 -90 0 0 40
c0 36 3 40 25 40 20 0 25 5 25 25 0 18 5 25 20 25 13 0 20 7 20 20 0 13 7 20
20 20 17 0 20 -7 20 -45z m90 30 c0 -8 -9 -15 -20 -15 -11 0 -20 7 -20 15 0 8
9 15 20 15 11 0 20 -7 20 -15z m2210 -30 c0 -38 3 -45 20 -45 11 0 20 -6 20
-14 0 -10 -14 -16 -42 -18 -36 -2 -44 -7 -46 -25 -6 -41 -32 -27 -32 17 0 33
3 40 20 40 17 0 20 7 20 45 0 38 3 45 20 45 17 0 20 -7 20 -45z m-1800 20 c0
-9 -6 -12 -15 -9 -8 4 -12 10 -9 15 8 14 24 10 24 -6z m-270 -60 l0 -45 -65 0
c-63 0 -65 1 -65 25 0 18 5 25 20 25 13 0 20 7 20 20 0 17 7 20 45 20 l45 0 0
-45z m580 5 c0 -36 -2 -40 -18 -31 -14 7 -18 18 -14 40 7 47 32 40 32 -9z m90
-26 c0 -56 -2 -65 -17 -62 -26 5 -26 128 0 128 14 0 17 -10 17 -66z m1530 -4
c0 -19 7 -20 95 -20 82 0 94 -2 88 -16 -4 -11 -9 -12 -16 -5 -17 17 -27 13
-27 -9 0 -13 7 -20 20 -20 17 0 20 -7 20 -40 l0 -40 -40 0 c-33 0 -40 3 -40
20 0 13 7 20 20 20 11 0 20 -7 20 -15 0 -8 5 -15 11 -15 6 0 9 10 7 23 -2 17
-11 23 -36 25 -39 4 -48 -13 -35 -67 10 -36 9 -37 -13 -33 -19 3 -24 0 -24
-17 0 -24 10 -27 28 -9 9 9 12 8 12 -5 0 -14 -10 -17 -60 -17 l-60 0 0 45 c0
41 -2 45 -25 45 -18 0 -25 5 -25 20 0 15 7 20 25 20 24 0 25 2 25 65 0 51 3
65 15 65 8 0 15 -9 15 -20z m95 10 c-3 -5 -13 -10 -21 -10 -8 0 -14 5 -14 10
0 6 9 10 21 10 11 0 17 -4 14 -10z m-1715 -51 c0 -10 -6 -19 -13 -19 -20 0
-25 9 -20 30 6 24 33 15 33 -11z m50 -69 c0 -28 -4 -40 -14 -40 -8 0 -15 8
-15 18 1 9 -2 27 -6 40 -6 18 -4 22 14 22 18 0 21 -6 21 -40z m-40 -19 c0 -12
-9 -20 -25 -23 -21 -4 -25 -1 -25 18 0 19 5 24 25 24 18 0 25 -5 25 -19z
m2550 4 c0 -8 -7 -15 -15 -15 -8 0 -15 7 -15 15 0 8 7 15 15 15 8 0 15 -7 15
-15z m-2645 -50 c0 -13 -8 -21 -22 -23 -15 -2 -23 -10 -23 -23 0 -12 -7 -19
-20 -19 -13 0 -20 7 -20 20 0 13 7 20 20 20 15 0 20 7 20 26 0 21 4 25 23 22
14 -2 22 -10 22 -23z m85 -5 c0 -5 -9 -10 -20 -10 -11 0 -20 5 -20 10 0 6 9
10 20 10 11 0 20 -4 20 -10z m1760 0 c0 -5 -7 -10 -16 -10 -8 0 -12 5 -9 10 3
6 10 10 16 10 5 0 9 -4 9 -10z m-1953 -40 c-3 -13 0 -20 9 -20 8 0 14 -10 14
-25 0 -20 -5 -25 -25 -25 -23 0 -25 4 -24 38 3 43 6 52 21 52 6 0 8 -9 5 -20z
m333 -110 c0 -123 -1 -130 -20 -130 -13 0 -20 7 -20 20 0 15 -7 20 -25 20
l-25 0 0 110 0 110 45 0 45 0 0 -130z m-825 69 c-4 -5 -13 -9 -20 -9 -21 0
-38 -38 -31 -71 4 -22 2 -29 -9 -29 -9 0 -15 -10 -15 -25 0 -25 -1 -25 -90
-25 l-90 0 0 65 0 65 45 0 c40 0 45 2 45 23 0 21 3 22 85 19 49 -2 83 -7 80
-13z m685 -4 c0 -8 -8 -15 -18 -15 -10 0 -19 7 -19 15 0 8 9 15 19 15 10 0 18
-7 18 -15z m-220 -90 c0 -18 -5 -25 -20 -25 -18 0 -20 -7 -20 -65 0 -58 2 -65
20 -65 15 0 20 -7 20 -25 0 -18 -5 -25 -20 -25 -17 0 -20 -7 -20 -45 0 -38 3
-45 20 -45 13 0 20 -7 20 -20 0 -13 -7 -20 -20 -20 -15 0 -20 -7 -20 -25 0
-20 -5 -25 -25 -25 l-25 0 0 177 c0 127 -3 174 -11 166 -7 -7 -9 -60 -7 -152
2 -77 0 -141 -4 -141 -5 0 -8 11 -8 25 0 17 -8 29 -25 37 -14 6 -28 9 -31 5
-10 -10 6 -27 27 -27 12 0 19 -7 19 -20 0 -15 -7 -20 -25 -20 -20 0 -25 5 -25
25 0 23 -4 25 -45 25 -38 0 -45 3 -45 20 0 17 -7 20 -45 20 -41 0 -45 2 -45
25 0 18 -5 25 -20 25 -17 0 -20 7 -20 40 0 33 3 40 20 40 13 0 20 7 20 20 0
19 7 20 115 20 l115 0 0 24 c0 22 6 26 45 32 35 5 45 10 45 25 0 12 7 19 20
19 15 0 20 -7 20 -25z m180 -50 c0 -61 0 -62 -25 -57 -22 4 -25 1 -25 -22 0
-19 -5 -26 -20 -26 -13 0 -20 -7 -20 -20 0 -13 -7 -20 -20 -20 -13 0 -20 7
-20 20 0 11 5 20 10 20 6 0 10 9 10 20 0 11 -4 20 -10 20 -5 0 -10 9 -10 20 0
13 7 20 20 20 15 0 20 7 20 25 0 20 5 25 25 25 18 0 25 -5 25 -20 0 -13 -7
-20 -20 -20 -11 0 -20 -5 -20 -11 0 -6 10 -9 23 -7 20 3 22 8 19 55 -2 47 -1
51 18 46 17 -5 20 -14 20 -68z m1260 50 c0 -23 -4 -25 -45 -25 -41 0 -45 2
-45 25 0 23 4 25 45 25 41 0 45 -2 45 -25z m-900 -65 l0 -40 -40 0 -40 0 0 40
0 40 40 0 40 0 0 -40z m-550 -54 c0 -3 -4 -8 -10 -11 -5 -3 -10 -1 -10 4 0 6
5 11 10 11 6 0 10 -2 10 -4z m60 -16 c0 -15 -7 -20 -25 -20 -18 0 -25 5 -25
20 0 15 7 20 25 20 18 0 25 -5 25 -20z m1300 -45 c0 -58 -2 -65 -20 -65 -18 0
-20 -7 -20 -70 l0 -70 -45 0 c-38 0 -45 -3 -45 -20 0 -15 -7 -20 -25 -20 -18
0 -25 5 -25 20 0 18 -7 20 -64 20 -59 0 -65 2 -68 23 -2 14 -11 23 -25 25 -15
2 -23 10 -23 22 0 12 8 20 23 22 18 2 23 10 25 45 3 42 3 42 45 45 35 2 43 7
45 26 2 14 10 22 22 22 12 0 20 -8 22 -22 2 -15 10 -23 23 -23 13 0 21 8 23
23 3 19 9 22 48 22 37 0 44 3 44 20 0 13 7 20 20 20 18 0 20 -7 20 -65z
m-1038 -29 c2 -34 7 -42 26 -44 14 -2 22 -10 22 -23 0 -17 8 -19 70 -19 64 0
70 -2 70 -21 0 -17 -6 -20 -37 -19 -58 3 -61 2 -59 -25 1 -25 2 -26 71 -23 67
3 70 4 67 27 -3 22 -1 23 28 17 18 -3 48 -6 66 -6 27 0 34 -4 34 -20 0 -15 7
-20 25 -20 20 0 25 -5 25 -25 0 -18 5 -25 20 -25 13 0 20 -7 20 -20 0 -15 7
-20 25 -20 24 0 25 -2 25 -71 0 -66 1 -70 20 -64 18 6 20 2 20 -45 0 -50 1
-52 25 -48 21 4 25 1 25 -18 0 -23 3 -24 70 -24 66 0 70 1 70 23 0 16 6 23 20
23 17 0 20 -7 20 -48 0 -41 3 -48 20 -48 13 0 20 -7 20 -20 0 -19 7 -20 115
-20 l114 0 3 -87 3 -88 42 -3 c42 -3 42 -3 45 -45 2 -35 7 -43 26 -45 22 -3
23 -6 20 -90 -3 -79 -5 -87 -23 -87 -14 0 -21 -8 -23 -28 -2 -15 -4 -27 -5
-27 -1 0 -64 -16 -140 -35 -157 -40 -167 -41 -167 -20 0 8 -7 15 -16 15 -13 0
-14 -3 -5 -14 9 -10 8 -15 -3 -19 -20 -8 -26 1 -26 45 0 26 -4 38 -14 38 -8 0
-13 -10 -13 -25 0 -14 3 -25 8 -25 5 0 9 -7 9 -15 0 -8 -7 -15 -15 -15 -12 0
-15 16 -15 85 0 78 2 85 20 85 18 0 20 7 20 71 0 66 -1 71 -20 66 -19 -5 -20
0 -20 64 0 62 2 69 20 69 17 0 20 7 20 45 l0 45 133 1 c72 1 124 3 115 6 -10
2 -18 8 -18 11 0 9 -84 7 -99 -3 -7 -4 -20 -4 -29 0 -23 10 -104 5 -119 -7 -7
-5 -9 -23 -6 -41 4 -26 1 -34 -18 -42 -20 -9 -22 -17 -23 -82 -1 -65 1 -73 22
-82 18 -9 22 -19 22 -55 0 -35 -4 -45 -20 -49 -14 -3 -20 -14 -20 -31 0 -32
-17 -35 -22 -3 -3 20 -8 22 -73 22 l-70 -1 -3 -87 c-1 -48 -7 -87 -12 -87 -6
0 -10 9 -10 20 0 10 -9 24 -20 30 -11 6 -20 19 -20 30 0 11 9 24 20 30 29 16
24 80 -6 80 -8 0 -18 8 -21 18 -4 9 -11 20 -17 24 -6 4 4 8 22 8 25 0 35 5 39
20 3 10 13 22 24 25 10 3 20 14 23 23 3 9 16 22 28 27 20 9 22 16 19 63 -2 49
-1 53 28 70 31 17 40 32 20 32 -5 0 -7 5 -4 10 11 18 7 100 -5 115 -20 25 -59
18 -70 -11 -14 -37 -30 -20 -31 34 -1 38 -3 33 -10 -28 -4 -44 -13 -78 -21
-85 -8 -5 -21 -25 -29 -42 -7 -18 -20 -33 -27 -33 -8 0 -16 -9 -19 -20 -4 -13
-17 -22 -42 -26 -20 -4 -38 -11 -41 -15 -3 -5 -34 -3 -68 3 -51 9 -62 15 -62
31 0 15 -5 18 -22 13 -13 -3 -33 -6 -45 -6 -16 0 -23 -6 -23 -20 0 -17 -7 -20
-45 -20 -41 0 -45 -2 -45 -25 0 -14 -3 -24 -7 -24 -30 5 -43 -3 -43 -26 0 -25
0 -25 95 -25 95 0 95 0 95 25 0 18 5 25 20 25 13 0 20 7 20 20 0 17 7 20 45
20 38 0 45 -3 45 -20 0 -15 7 -20 25 -20 18 0 25 5 25 20 0 17 7 20 45 20 41
0 45 2 45 25 0 18 5 25 20 25 13 0 20 7 20 20 0 15 7 20 25 20 23 0 25 4 25
44 0 43 1 43 43 53 24 6 33 11 20 12 -28 1 -31 21 -4 21 24 0 31 -19 31 -81 0
-46 -2 -50 -22 -47 -22 3 -23 -1 -26 -65 -3 -58 -5 -67 -22 -67 -12 0 -20 -8
-22 -22 -2 -15 -10 -23 -23 -23 -13 0 -21 -8 -23 -22 -3 -20 -9 -23 -48 -23
-40 0 -44 -2 -44 -25 0 -20 5 -25 25 -25 18 0 25 -5 25 -20 0 -13 7 -20 20
-20 14 0 20 -7 20 -24 0 -19 -4 -23 -20 -19 -18 5 -20 0 -20 -40 0 -39 -3 -46
-22 -49 -12 -2 -25 -12 -28 -23 -3 -14 -15 -21 -37 -23 -39 -4 -53 15 -20 27
26 10 41 53 25 69 -6 6 -28 7 -50 4 l-40 -5 3 39 c4 49 -5 64 -37 64 -14 0
-22 -4 -19 -10 3 -5 15 -10 26 -10 16 0 19 -7 19 -45 l0 -45 45 0 c41 0 45 -2
45 -25 0 -20 -5 -25 -25 -25 -19 0 -25 -5 -25 -21 0 -20 -3 -21 -57 -14 -151
18 -350 73 -512 142 -154 66 -191 89 -191 121 0 15 -5 34 -11 42 -8 11 -9 7
-4 -18 8 -39 -4 -41 -58 -8 -23 14 -34 27 -28 30 6 4 11 25 11 47 0 28 4 39
15 39 18 0 19 12 3 28 -9 9 -8 12 5 12 13 0 17 -9 17 -40 0 -36 3 -40 25 -40
23 0 25 4 25 45 0 41 -2 45 -25 45 -23 0 -25 4 -25 45 0 41 2 45 25 45 20 0
24 -5 22 -22 -1 -17 4 -24 21 -26 19 -3 22 -9 22 -48 0 -39 2 -44 22 -41 17 1
24 -4 26 -20 2 -15 10 -23 23 -23 14 0 19 -7 19 -25 0 -25 1 -25 78 -25 112 0
152 9 152 31 0 12 7 19 20 19 17 0 20 -7 20 -45 l0 -45 70 0 c51 0 70 4 70 13
0 10 -15 12 -60 9 l-60 -4 0 28 c-1 33 -21 64 -42 64 -19 0 -37 -20 -32 -35 4
-10 -15 -13 -79 -14 -77 -1 -85 1 -90 19 -3 13 -10 18 -21 14 -9 -3 -16 -1
-16 5 0 6 -3 10 -7 10 -20 -3 -34 2 -28 10 3 5 1 12 -5 16 -5 3 -10 14 -10 25
0 10 -7 20 -15 24 -8 3 -15 11 -15 19 0 52 -79 107 -114 78 -18 -15 -30 1 -22
33 3 13 19 27 41 36 31 12 35 18 33 47 -1 18 3 38 10 45 30 30 -1 75 -47 69
-26 -3 -26 -3 -7 18 10 11 16 27 13 36 -5 10 0 15 13 15 22 0 26 28 10 65 -8
18 -9 18 -9 2 -1 -23 -25 -17 -29 6 -3 12 4 17 22 17 20 0 26 5 26 23 0 16 6
23 20 23 18 0 20 -7 20 -68 0 -62 -2 -68 -21 -68 -15 0 -20 -5 -17 -22 4 -30
38 -37 38 -9 0 11 5 23 10 26 6 3 10 17 10 30 0 18 4 23 15 19 12 -5 15 3 15
40 0 46 0 46 34 46 61 0 96 11 96 31 0 9 8 20 18 23 9 2 0 2 -20 -1 -33 -5
-38 -3 -38 15 0 19 7 21 68 24 63 3 67 4 64 26 -2 16 2 22 17 22 13 0 21 -8
23 -22 3 -21 8 -23 51 -20 46 4 48 3 45 -20 -3 -20 -8 -23 -43 -22 -22 1 -32
0 -22 -3 13 -3 17 -15 17 -49 l0 -44 115 0 c108 0 115 -1 115 -20 0 -17 -7
-20 -46 -20 -41 0 -45 -2 -42 -22 4 -31 38 -37 38 -8 0 19 4 21 25 16 18 -5
27 -1 35 14 17 31 -4 62 -35 54 -21 -5 -25 -2 -25 15 0 18 -6 21 -45 21 l-45
0 0 65 0 65 -49 0 c-62 0 -81 7 -81 30 0 12 -9 20 -22 22 -13 2 -23 10 -23 18
0 8 10 16 23 18 15 2 22 10 22 25 0 20 4 22 39 19 39 -4 40 -5 43 -46z m-262
-5 c0 -38 -15 -71 -31 -71 -15 0 -19 8 -19 40 0 36 3 40 25 40 14 0 25 -4 25
-9z m-65 -21 c3 -5 1 -10 -4 -10 -6 0 -11 5 -11 10 0 6 2 10 4 10 3 0 8 -4 11
-10z m-125 -132 c0 -4 -9 -8 -20 -8 -17 0 -20 -7 -20 -45 l0 -45 -45 0 -45 0
0 -45 c0 -51 -26 -66 -32 -17 -3 24 -7 27 -45 30 -26 2 -43 -1 -43 -7 0 -6 18
-11 41 -11 l40 0 -3 -47 c-3 -41 -6 -48 -25 -51 -23 -3 -23 -5 -23 -174 0
-153 -2 -170 -16 -164 -9 4 -22 1 -30 -4 -9 -8 -20 -7 -40 6 -15 10 -22 20
-15 22 6 2 11 15 11 28 0 17 -6 24 -20 24 -16 0 -21 9 -26 49 -5 41 -9 48 -25
44 -14 -4 -19 0 -19 16 0 14 -6 21 -20 21 -17 0 -20 7 -20 44 l0 45 43 3 c42
3 42 3 45 45 3 40 5 42 41 48 42 7 51 25 51 100 0 28 3 32 20 28 16 -4 20 0
20 21 0 24 3 26 45 26 41 0 45 -2 45 -25 0 -20 5 -25 25 -25 23 0 25 3 25 49
l0 48 40 -10 c22 -6 40 -15 40 -19z m-670 -135 c-1 -27 -1 -27 -15 -9 -19 25
-19 36 0 36 10 0 15 -10 15 -27z m630 -69 c0 -37 -3 -44 -20 -44 -13 0 -20 -7
-20 -19 0 -16 8 -20 43 -23 46 -3 61 -30 20 -36 -20 -3 -23 -9 -23 -47 0 -36
-3 -44 -21 -47 -19 -3 -21 -10 -23 -133 -4 -190 -11 -198 -115 -123 -83 60
-90 78 -27 78 41 0 44 2 50 31 3 17 6 78 6 135 0 97 1 104 20 104 17 0 20 7
20 45 0 38 3 45 20 45 12 0 20 7 20 17 0 13 -3 14 -12 5 -16 -16 -28 -15 -28
3 0 9 9 15 25 15 20 0 25 5 25 24 0 19 4 23 20 19 16 -4 20 -14 20 -49z m-410
-14 c0 -13 -7 -20 -20 -20 -13 0 -20 7 -20 20 0 13 7 20 20 20 13 0 20 -7 20
-20z m290 -90 c-32 -25 -50 -25 -50 0 0 16 7 20 38 20 l37 0 -25 -20z m154
-55 c3 -8 1 -15 -4 -15 -6 0 -10 7 -10 15 0 8 2 15 4 15 2 0 6 -7 10 -15z
m1537 -172 c1 -10 2 -29 3 -43 1 -25 3 -25 94 -28 l92 -3 0 26 c0 14 -4 25
-10 25 -5 0 -10 -4 -10 -9 0 -5 -16 -11 -35 -13 -24 -3 -35 0 -35 9 0 7 11 13
25 13 18 0 25 5 25 20 0 11 6 20 14 20 7 0 16 -9 19 -20 3 -14 14 -20 31 -20
19 0 26 5 26 20 0 11 7 20 15 20 11 0 15 -11 15 -40 0 -33 -3 -40 -17 -38 -14
2 -19 -6 -23 -42 -4 -37 -9 -45 -25 -45 -18 0 -20 -8 -23 -95 -3 -98 -15 -126
-49 -113 -12 5 -14 22 -11 82 3 75 2 76 -26 89 -23 12 -27 19 -23 40 6 34 -9
63 -28 56 -8 -4 -26 -3 -40 0 -23 6 -25 11 -23 56 2 47 16 71 19 33z m-1586
-3 c3 -5 1 -10 -4 -10 -6 0 -11 5 -11 10 0 6 2 10 4 10 3 0 8 -4 11 -10z
m1635 -35 c0 -9 -6 -12 -15 -9 -8 4 -15 10 -15 15 0 5 7 9 15 9 8 0 15 -7 15
-15z m216 -62 c-10 -10 -19 5 -10 18 6 11 8 11 12 0 2 -7 1 -15 -2 -18z m4
-206 c0 -9 -11 -12 -35 -9 -19 2 -35 8 -35 13 0 5 16 9 35 9 22 0 35 -5 35
-13z m-6 -37 c-6 -6 -25 -14 -42 -19 -28 -8 -32 -7 -32 10 0 16 7 19 42 19 28
0 39 -3 32 -10z m-664 -60 c0 -13 -7 -20 -20 -20 -13 0 -20 7 -20 20 0 13 7
20 20 20 13 0 20 -7 20 -20z m569 16 c-2 -1 -19 -8 -36 -14 -27 -9 -33 -8 -33
4 0 10 11 14 37 14 20 0 34 -2 32 -4z m-749 -99 c0 -16 -6 -23 -20 -23 -25 0
-27 33 -2 39 9 3 18 5 20 6 1 0 2 -9 2 -22z m180 -2 c0 -8 -9 -15 -20 -15 -11
0 -20 7 -20 15 0 8 9 15 20 15 11 0 20 -7 20 -15z"/>
<path d="M92 1938 c1 -41 1 -41 5 -8 3 19 10 38 16 42 8 5 6 8 -5 8 -15 0 -18
-8 -16 -42z"/>
<path d="M2975 3570 c3 -5 11 -10 16 -10 6 0 7 5 4 10 -3 6 -11 10 -16 10 -6
0 -7 -4 -4 -10z"/>
<path d="M2855 3560 c-3 -5 -1 -10 4 -10 6 0 11 5 11 10 0 6 -2 10 -4 10 -3 0
-8 -4 -11 -10z"/>
<path d="M3021 3534 c0 -11 3 -14 6 -6 3 7 2 16 -1 19 -3 4 -6 -2 -5 -13z"/>
<path d="M2241 3124 c0 -11 3 -14 6 -6 3 7 2 16 -1 19 -3 4 -6 -2 -5 -13z"/>
<path d="M2480 2680 c0 -11 2 -20 4 -20 2 0 6 9 9 20 3 11 1 20 -4 20 -5 0 -9
-9 -9 -20z"/>
<path d="M2757 2613 c-12 -11 -8 -23 8 -23 8 0 15 7 15 15 0 16 -12 20 -23 8z"/>
<path d="M1970 3490 c0 -5 5 -10 10 -10 6 0 10 5 10 10 0 6 -4 10 -10 10 -5 0
-10 -4 -10 -10z"/>
<path d="M1873 3443 c-18 -7 -16 -20 2 -20 8 0 15 6 15 14 0 7 -1 13 -2 12 -2
0 -9 -3 -15 -6z"/>
<path d="M1805 3319 c-11 -16 -1 -19 13 -3 7 8 8 14 3 14 -5 0 -13 -5 -16 -11z"/>
<path d="M1750 3231 c-13 -25 -13 -51 0 -51 6 0 10 13 10 30 0 23 3 28 17 23
11 -4 14 -3 9 5 -11 17 -24 15 -36 -7z"/>
<path d="M1692 3125 c-11 -12 -10 -15 3 -15 8 0 15 7 15 15 0 18 -2 18 -18 0z"/>
<path d="M1754 3105 c-9 -21 -2 -26 13 -10 8 9 9 16 3 20 -6 3 -13 -1 -16 -10z"/>
<path d="M1683 3040 c1 -11 7 -20 14 -20 7 0 13 9 13 20 0 11 -6 20 -14 20 -9
0 -14 -9 -13 -20z"/>
<path d="M1701 2954 c0 -11 3 -14 6 -6 3 7 2 16 -1 19 -3 4 -6 -2 -5 -13z"/>
<path d="M1620 2902 c0 -12 19 -26 26 -19 2 2 -2 10 -11 17 -9 8 -15 8 -15 2z"/>
<path d="M3096 2853 c-6 -14 -5 -15 5 -6 7 7 10 15 7 18 -3 3 -9 -2 -12 -12z"/>
<path d="M1972 3285 c0 -16 2 -22 5 -12 2 9 2 23 0 30 -3 6 -5 -1 -5 -18z"/>
<path d="M1933 3233 c15 -2 39 -2 55 0 15 2 2 4 -28 4 -30 0 -43 -2 -27 -4z"/>
<path d="M1843 2806 c1 -11 9 -21 17 -23 10 -3 11 -2 4 4 -6 4 -14 15 -17 23
-5 11 -6 9 -4 -4z"/>
<path d="M1802 2750 c0 -19 2 -27 5 -17 2 9 2 25 0 35 -3 9 -5 1 -5 -18z"/>
<path d="M3333 2677 c-45 -15 -41 -27 7 -27 33 0 40 3 40 20 0 22 0 22 -47 7z"/>
<path d="M3810 2675 c0 -8 5 -15 10 -15 6 0 10 7 10 15 0 8 -4 15 -10 15 -5 0
-10 -7 -10 -15z"/>
<path d="M2190 2680 c0 -5 5 -10 10 -10 6 0 10 5 10 10 0 6 -4 10 -10 10 -5 0
-10 -4 -10 -10z"/>
<path d="M1573 2536 c1 -11 9 -21 17 -23 10 -3 11 -2 4 4 -6 4 -14 15 -17 23
-5 11 -6 9 -4 -4z"/>
<path d="M1522 2475 c0 -16 2 -22 5 -12 2 9 2 23 0 30 -3 6 -5 -1 -5 -18z"/>
<path d="M1571 2418 c0 -16 2 -18 6 -8 3 8 11 18 17 22 7 5 4 8 -6 8 -12 0
-18 -7 -17 -22z"/>
<path d="M1410 2260 c0 -5 5 -10 10 -10 6 0 10 5 10 10 0 6 -4 10 -10 10 -5 0
-10 -4 -10 -10z"/>
<path d="M1350 2228 c0 -11 -8 -18 -20 -18 -11 0 -20 -6 -20 -14 0 -17 31 -16
45 2 6 7 17 12 25 10 8 -2 16 6 18 17 4 17 2 18 -13 5 -14 -12 -18 -12 -26 1
-7 11 -9 11 -9 -3z"/>
<path d="M1400 2141 c0 -11 -7 -22 -15 -24 -12 -4 -12 -5 1 -3 18 1 41 46 24
46 -6 0 -10 -9 -10 -19z"/>
<path d="M1530 2100 c0 -5 5 -10 11 -10 5 0 7 5 4 10 -3 6 -8 10 -11 10 -2 0
-4 -4 -4 -10z"/>
<path d="M2203 2443 c-15 -6 -17 -43 -3 -43 6 0 10 6 10 14 0 7 9 16 20 19 17
4 20 0 20 -24 0 -20 -5 -29 -17 -29 -9 0 -14 -3 -10 -6 3 -3 15 -3 26 1 15 4
21 15 21 35 0 34 -29 49 -67 33z"/>
<path d="M2265 2351 c3 -6 22 -11 41 -11 24 0 34 -5 34 -15 0 -8 5 -15 11 -15
6 0 9 10 7 23 -3 19 -10 22 -51 25 -33 2 -47 0 -42 -7z"/>
<path d="M2068 2303 c18 -2 45 -2 60 0 15 2 0 4 -33 4 -33 0 -45 -2 -27 -4z"/>
<path d="M1926 2254 c-3 -9 -6 -28 -6 -42 -1 -23 -2 -25 -13 -11 -15 19 -57
43 -64 35 -11 -11 7 -36 27 -36 21 0 28 -24 10 -35 -5 -3 -10 -15 -10 -26 0
-10 5 -19 10 -19 6 0 10 9 10 20 0 13 7 20 20 20 17 0 20 7 20 45 0 38 4 47
23 55 22 9 22 9 1 9 -12 1 -25 -6 -28 -15z"/>
<path d="M1696 2145 c4 -8 8 -15 10 -15 2 0 4 7 4 15 0 8 -4 15 -10 15 -5 0
-7 -7 -4 -15z"/>
<path d="M1760 2129 c0 -5 11 -9 25 -9 14 0 25 2 25 4 0 2 -11 6 -25 8 -14 3
-25 1 -25 -3z"/>
<path d="M1800 2059 c0 -5 5 -7 10 -4 6 3 10 8 10 11 0 2 -4 4 -10 4 -5 0 -10
-5 -10 -11z"/>
<path d="M1842 2006 c-2 -23 -6 -27 -22 -23 -16 4 -20 0 -20 -19 0 -22 -4 -24
-43 -24 -24 0 -48 5 -55 12 -8 8 -12 8 -12 1 0 -25 27 -33 76 -24 28 5 84 6
129 1 83 -8 105 -2 105 29 -1 14 -2 14 -14 -1 -10 -14 -28 -18 -74 -18 l-61 0
-4 48 c-2 26 -4 34 -5 18z"/>
<path d="M1878 2023 c12 -2 30 -2 40 0 9 3 -1 5 -23 4 -22 0 -30 -2 -17 -4z"/>
<path d="M1800 1870 c0 -25 4 -30 25 -30 21 0 25 5 25 30 0 25 -4 30 -25 30
-21 0 -25 -5 -25 -30z"/>
<path d="M1587 1804 c-15 -15 -7 -44 12 -44 13 0 21 -8 23 -22 2 -18 10 -23
42 -26 49 -3 51 -5 48 -47 -2 -31 0 -35 23 -35 21 0 25 -5 25 -27 0 -22 2 -25
10 -13 5 8 14 15 20 15 21 0 14 20 -7 23 -15 2 -23 10 -23 23 0 10 -7 19 -15
19 -9 0 -12 -6 -9 -17 5 -15 4 -16 -5 -3 -6 8 -8 23 -5 33 8 26 -15 49 -42 43
-18 -5 -21 -2 -17 13 4 15 -1 20 -19 23 -15 2 -23 10 -23 23 0 20 -25 32 -38
19z"/>
<path d="M2381 1738 c1 -13 1 -42 1 -65 -2 -36 -5 -43 -22 -43 -15 0 -20 -7
-20 -25 0 -20 5 -25 26 -25 20 0 25 5 24 23 -5 52 0 67 21 67 18 0 20 5 17 43
-3 35 -7 43 -26 45 -19 3 -23 -1 -21 -20z"/>
<path d="M1596 1703 c5 -5 12 -12 16 -18 4 -6 8 -2 8 8 0 9 -7 17 -17 17 -9 0
-12 -3 -7 -7z"/>
<path d="M2466 1645 c-3 -8 -1 -15 4 -15 6 0 10 7 10 15 0 8 -2 15 -4 15 -2 0
-6 -7 -10 -15z"/>
<path d="M2571 1644 c0 -11 3 -14 6 -6 3 7 2 16 -1 19 -3 4 -6 -2 -5 -13z"/>
<path d="M1686 1612 c6 -4 14 -14 17 -22 4 -10 6 -8 6 8 1 15 -5 22 -16 22
-11 0 -14 -3 -7 -8z"/>
<path d="M2420 1606 c0 -8 -6 -17 -12 -19 -8 -3 -6 -6 5 -6 11 -1 17 6 17 19
0 11 -2 20 -5 20 -3 0 -5 -6 -5 -14z"/>
<path d="M2525 1609 c-11 -17 1 -21 15 -4 8 9 8 15 2 15 -6 0 -14 -5 -17 -11z"/>
<path d="M1840 1570 c14 -10 27 -17 29 -15 8 8 -22 35 -38 35 -12 0 -10 -5 9
-20z"/>
<path d="M1791 1564 c0 -11 3 -14 6 -6 3 7 2 16 -1 19 -3 4 -6 -2 -5 -13z"/>
<path d="M2430 1559 c0 -5 5 -7 10 -4 6 3 10 8 10 11 0 2 -4 4 -10 4 -5 0 -10
-5 -10 -11z"/>
<path d="M1762 1510 c0 -14 2 -19 5 -12 2 6 2 18 0 25 -3 6 -5 1 -5 -13z"/>
<path d="M3586 1465 c-3 -8 -1 -15 4 -15 6 0 10 7 10 15 0 8 -2 15 -4 15 -2 0
-6 -7 -10 -15z"/>
<path d="M3650 1465 c0 -8 4 -15 10 -15 5 0 7 7 4 15 -4 8 -8 15 -10 15 -2 0
-4 -7 -4 -15z"/>
<path d="M3504 1446 c-3 -8 -4 -23 -2 -33 3 -11 6 -6 9 15 6 34 2 42 -7 18z"/>
<path d="M3234 1396 c-12 -31 0 -51 31 -51 27 0 30 3 30 30 0 25 -4 30 -28 33
-17 2 -29 -2 -33 -12z m56 -21 c0 -20 -5 -25 -25 -25 -20 0 -25 5 -25 25 0 20
5 25 25 25 20 0 25 -5 25 -25z"/>
<path d="M3546 1375 c4 -8 8 -15 10 -15 2 0 4 7 4 15 0 8 -4 15 -10 15 -5 0
-7 -7 -4 -15z"/>
<path d="M3697 1361 c-4 -17 -3 -21 5 -13 5 5 8 16 6 23 -3 8 -7 3 -11 -10z"/>
<path d="M3598 1343 c18 -2 45 -2 60 0 15 2 0 4 -33 4 -33 0 -45 -2 -27 -4z"/>
<path d="M3663 1273 c9 -2 23 -2 30 0 6 3 -1 5 -18 5 -16 0 -22 -2 -12 -5z"/>
<path d="M3702 1205 c0 -16 2 -22 5 -12 2 9 2 23 0 30 -3 6 -5 -1 -5 -18z"/>
<path d="M3668 1158 c16 -16 15 -55 0 -61 -8 -3 -6 -6 5 -6 13 -1 17 7 17 39
0 31 -4 40 -17 40 -13 0 -14 -3 -5 -12z"/>
<path d="M3546 1015 c-3 -8 -1 -15 4 -15 6 0 10 7 10 15 0 8 -2 15 -4 15 -2 0
-6 -7 -10 -15z"/>
<path d="M3136 925 c-3 -8 -1 -15 4 -15 6 0 10 7 10 15 0 8 -2 15 -4 15 -2 0
-6 -7 -10 -15z"/>
<path d="M3090 875 c-8 -9 -8 -15 -2 -15 12 0 26 19 19 26 -2 2 -10 -2 -17
-11z"/>
<path d="M3046 835 c-3 -8 -1 -15 4 -15 6 0 10 7 10 15 0 8 -2 15 -4 15 -2 0
-6 -7 -10 -15z"/>
<path d="M2957 790 c-3 -11 -1 -20 4 -20 5 0 9 9 9 20 0 11 -2 20 -4 20 -2 0
-6 -9 -9 -20z"/>
<path d="M2908 773 c6 -2 18 -2 25 0 6 3 1 5 -13 5 -14 0 -19 -2 -12 -5z"/>
<path d="M3470 751 c0 -25 6 -27 13 -6 4 8 2 17 -3 20 -6 4 -10 -3 -10 -14z"/>
<path d="M2980 709 c0 -5 5 -7 11 -3 6 3 15 0 20 -7 7 -11 9 -10 9 4 0 10 -8
17 -20 17 -11 0 -20 -5 -20 -11z"/>
<path d="M3250 713 c0 -5 33 -7 72 -5 132 5 145 9 36 10 -60 1 -108 -1 -108
-5z"/>
<path d="M2913 623 c9 -2 25 -2 35 0 9 3 1 5 -18 5 -19 0 -27 -2 -17 -5z"/>
<path d="M2880 578 c0 -25 3 -29 10 -18 13 20 13 50 0 50 -5 0 -10 -15 -10
-32z"/>
<path d="M981 1813 c-1 -18 4 -23 22 -22 15 1 17 3 5 6 -9 2 -19 12 -21 21 -3
12 -5 10 -6 -5z"/>
<path d="M1200 1756 c0 -8 -9 -17 -19 -21 -21 -6 -34 -31 -25 -46 8 -13 24
-11 22 3 -2 7 7 14 20 16 14 2 22 10 22 23 0 10 7 19 15 19 8 0 15 5 15 10 0
6 -11 10 -25 10 -15 0 -25 -6 -25 -14z"/>
<path d="M1473 1583 c9 -2 23 -2 30 0 6 3 -1 5 -18 5 -16 0 -22 -2 -12 -5z"/>
<path d="M1473 1483 c9 -2 23 -2 30 0 6 3 -1 5 -18 5 -16 0 -22 -2 -12 -5z"/>
<path d="M888 1359 c-22 -12 -23 -42 -2 -60 22 -18 112 -18 120 1 12 26 12 55
0 62 -16 11 -98 9 -118 -3z m102 -29 c0 -17 -7 -20 -45 -20 -38 0 -45 3 -45
20 0 17 7 20 45 20 38 0 45 -3 45 -20z"/>
<path d="M1121 1284 c0 -11 3 -14 6 -6 3 7 2 16 -1 19 -3 4 -6 -2 -5 -13z"/>
<path d="M1305 1090 c8 -12 95 -10 95 2 0 4 -23 8 -51 8 -32 0 -48 -4 -44 -10z"/>
<path d="M1155 1000 c-3 -5 -1 -10 4 -10 6 0 11 5 11 10 0 6 -2 10 -4 10 -3 0
-8 -4 -11 -10z"/>
<path d="M1233 1000 c-15 -6 -23 -17 -22 -32 l2 -23 4 23 c3 14 12 22 24 22
10 0 19 5 19 10 0 6 -1 10 -2 9 -2 0 -13 -4 -25 -9z"/>
<path d="M1350 970 c0 -15 7 -20 25 -20 18 0 25 5 25 20 0 15 -7 20 -25 20
-18 0 -25 -5 -25 -20z"/>
<path d="M1160 945 c-7 -9 -10 -18 -7 -21 3 -3 10 4 17 15 13 25 8 27 -10 6z"/>
<path d="M1335 904 c46 -7 245 -9 245 -2 0 5 -60 7 -132 7 -73 -1 -124 -3
-113 -5z"/>
<path d="M1234 862 c-70 -3 -71 -3 -66 -27 6 -33 52 -36 52 -4 0 20 4 21 45
16 24 -4 47 -2 50 3 8 13 -4 15 -81 12z"/>
<path d="M2328 553 c12 -2 30 -2 40 0 9 3 -1 5 -23 4 -22 0 -30 -2 -17 -4z"/>
<path d="M2290 356 c0 -154 -3 -187 -16 -200 -14 -15 -14 -16 5 -16 21 0 21 4
21 200 0 110 -2 200 -5 200 -3 0 -5 -83 -5 -184z"/>
<path d="M2391 523 c-1 -22 2 -23 62 -21 l62 2 -57 3 c-43 3 -58 8 -61 21 -3
12 -5 11 -6 -5z"/>
<path d="M1078 413 c6 -2 18 -2 25 0 6 3 1 5 -13 5 -14 0 -19 -2 -12 -5z"/>
<path d="M1739 396 c8 -9 11 -19 8 -23 -10 -10 13 -33 33 -33 26 0 46 28 32
42 -9 9 -12 8 -12 -5 0 -11 -8 -17 -23 -17 -18 0 -23 5 -23 21 1 12 -6 24 -14
27 -13 5 -13 3 -1 -12z"/>
<path d="M1063 385 c-9 -10 -9 -16 -2 -20 14 -9 22 0 17 18 -2 13 -5 13 -15 2z"/>
<path d="M1350 336 c0 -12 9 -16 43 -15 34 2 36 3 12 6 -16 3 -36 9 -42 15
-10 8 -13 6 -13 -6z"/>
<path d="M1440 290 c0 -14 15 -19 29 -11 9 6 7 10 -8 14 -12 3 -21 1 -21 -3z"/>
<path d="M1491 253 c-1 -22 2 -23 84 -23 47 0 85 3 85 8 0 4 -36 6 -79 4 -70
-3 -80 -1 -84 15 -4 14 -5 14 -6 -4z"/>
<path d="M1700 215 c0 -18 -16 -20 -23 -2 -3 6 -6 3 -6 -8 -1 -14 5 -21 19
-21 14 0 20 7 20 23 0 13 -2 23 -5 23 -3 0 -5 -7 -5 -15z"/>
<path d="M710 836 c0 -34 -5 -56 -12 -59 -8 -3 -6 -6 5 -6 14 -1 17 8 17 59 0
33 -2 60 -5 60 -3 0 -5 -24 -5 -54z"/>
<path d="M662 720 c0 -14 2 -19 5 -12 2 6 2 18 0 25 -3 6 -5 1 -5 -13z"/>
<path d="M768 698 c-2 -15 -11 -24 -25 -26 -15 -2 -23 -10 -23 -22 0 -10 -8
-21 -17 -23 -13 -3 -12 -5 5 -6 16 -1 26 6 29 19 3 11 11 20 18 20 8 0 20 14
29 30 12 25 12 30 1 30 -8 0 -15 -10 -17 -22z"/>
<path d="M754 596 c-11 -30 0 -61 24 -62 18 -1 19 -1 2 3 -28 6 -28 53 1 53
11 0 17 5 14 10 -9 15 -35 12 -41 -4z"/>
<path d="M886 520 c9 -17 23 -29 32 -29 15 1 15 2 0 6 -11 3 -18 14 -18 29 0
14 -6 24 -14 24 -12 0 -12 -4 0 -30z"/>
</g>
</svg>
